# xmcd
#
# Track frame offsets:
# 150
# 35930
# 71710
# 107490
# 143270
#
# Disc length: 2387 seconds
#
#
# Revision: 0
# Processed by: cddbd v1.5.2PL0 Copyright (c) Steve Scherf et al.
# Submitted via: FreeRIP 2.944 
#
DISCID=40095105
DTITLE=Grafton-S2004 - R-Ricochet05
DYEAR=2004
DGENRE=Death Metal
TTITLE0=0501
TTITLE1=0502
TTITLE2=0503
TTITLE3=0504
TTITLE4=0505
EXTD=R is for Ricochet by Sue Grafton 10 CDs\nRead by Judy Kaye audible.com\ndeath metal - misc - only 5
EXTT0=
EXTT1=
EXTT2=
EXTT3=
EXTT4=
PLAYORDER=
